<?xml version="1.0" standalone="no"?>
<!DOCTYPE svg PUBLIC "-//W3C//DTD SVG 20010904//EN"
 "http://www.w3.org/TR/2001/REC-SVG-20010904/DTD/svg10.dtd">
<svg style="background-color: #eee;" version="1.0" xmlns="http://www.w3.org/2000/svg"
 width="1000.000000pt" height="1000.000000pt" viewBox="0 0 1000.000000 1000.000000"
 preserveAspectRatio="xMidYMid meet">
<metadata>
Created by potrace 1.16, written by Peter Selinger 2001-2019
</metadata>
<g transform="translate(0.000000,1000.000000) scale(0.100000,-0.100000)"
fill="#016d9b" stroke="none">
<path d="M0 5000 l0 -5000 5000 0 5000 0 0 5000 0 5000 -5000 0 -5000 0 0
-5000z m5503 1948 c-52 -222 -111 -477 -132 -568 l-38 -165 -841 -3 c-790 -2
-841 -3 -846 -20 -10 -35 -96 -404 -96 -413 0 -5 295 -9 770 -9 549 0 770 -3
770 -11 0 -9 -185 -831 -205 -912 l-7 -27 152 0 c139 0 151 -1 146 -17 -2 -10
-10 -45 -16 -78 -6 -33 -14 -68 -16 -77 -5 -17 -53 -18 -781 -20 l-777 -3
-187 -815 c-104 -448 -195 -848 -204 -887 l-16 -73 -760 0 -759 0 7 28 c3 15
106 455 228 977 l221 950 -150 5 c-144 5 -151 6 -148 25 5 27 572 2487 577
2503 3 9 333 12 1603 12 l1599 0 -94 -402z m3197 -506 c0 -10 -76 -349 -170
-752 -93 -403 -170 -739 -170 -747 0 -10 20 -13 81 -13 72 0 80 -2 75 -17 -7
-26 -266 -1159 -266 -1167 0 -3 -192 -5 -427 -4 l-427 3 -176 575 c-96 316
-178 583 -182 593 -11 26 -37 20 -45 -10 -3 -16 -66 -282 -138 -593 l-131
-565 -433 -3 c-409 -2 -432 -1 -427 15 13 43 266 1145 266 1158 0 12 -16 15
-81 15 -72 0 -80 2 -75 18 3 9 78 332 166 717 89 385 166 719 172 743 l10 42
503 0 502 0 143 -465 c79 -256 147 -462 151 -458 3 5 52 208 109 453 57 245
107 453 112 463 8 16 39 17 433 17 405 0 425 -1 425 -18z"/>
</g>
</svg>
