<?xml version="1.0" standalone="no"?>
<!DOCTYPE svg PUBLIC "-//W3C//DTD SVG 20010904//EN"
 "http://www.w3.org/TR/2001/REC-SVG-20010904/DTD/svg10.dtd">
<svg style="background-color: #eee;" version="1.0" xmlns="http://www.w3.org/2000/svg"
 width="1332.000000pt" height="333.000000pt" viewBox="0 0 1333.000000 333.000000"
 preserveAspectRatio="xMidYMid meet">
<metadata>
Created by potrace 1.16, written by Peter Selinger 2001-2019
</metadata>
<g transform="translate(0.000000,333.000000) scale(0.100000,-0.100000)"
fill="#016d9b" stroke="none">
<path d="M0 1665 l0 -1665 6665 0 6665 0 0 1665 0 1665 -6665 0 -6665 0 0
-1665z m6700 875 c0 -9 -159 -711 -204 -900 -9 -36 -16 -70 -16 -77 0 -8 22
-13 63 -15 l62 -3 -84 -372 -85 -373 -273 0 -273 0 0 26 c0 21 -4 25 -17 19
-141 -54 -329 -67 -414 -28 -194 88 -256 327 -170 664 l17 69 -63 0 -63 0 25
58 c52 116 119 215 210 307 192 194 368 252 611 200 28 -6 32 -4 38 20 4 15
25 106 47 203 22 97 42 185 45 195 5 16 27 17 275 17 176 0 269 -4 269 -10z
m-4315 -57 c-3 -21 -25 -119 -48 -218 l-43 -180 -321 -3 -322 -2 -11 -43 c-6
-23 -15 -58 -21 -77 -5 -19 -9 -38 -9 -42 0 -5 133 -8 295 -8 162 0 295 -1
295 -3 0 -6 -71 -322 -76 -339 -5 -16 2 -18 50 -18 60 0 64 -5 50 -57 l-6 -23
-297 0 -297 0 -58 -252 c-32 -139 -67 -292 -78 -341 l-21 -87 -288 0 c-237 0
-289 2 -289 14 0 13 154 682 166 719 5 15 -2 17 -49 17 -29 0 -56 2 -59 5 -4
4 203 921 217 963 3 9 136 12 616 12 l611 0 -7 -37z m5230 28 c3 -5 45 -139
94 -298 49 -158 92 -281 95 -273 3 8 33 134 66 280 34 146 63 273 66 283 5 16
27 17 281 17 l275 0 -7 -27 c-17 -68 -215 -928 -215 -935 0 -4 23 -8 50 -8 28
0 50 -1 50 -3 0 -3 -141 -620 -165 -725 l-5 -22 -272 2 -272 3 -112 368 c-62
203 -115 371 -119 375 -3 3 -9 1 -13 -6 -5 -6 -46 -176 -92 -377 l-84 -365
-273 0 c-150 0 -273 2 -273 5 0 4 142 625 165 723 5 21 2 22 -45 22 -27 0 -50
4 -50 9 0 10 207 912 216 944 5 16 29 17 319 17 183 0 316 -4 320 -9z m4671
-108 c-11 -37 -66 -288 -66 -300 0 -10 36 -13 165 -13 154 0 165 -1 165 -19 0
-10 -18 -95 -40 -190 -22 -94 -40 -174 -40 -176 0 -3 -78 -5 -173 -5 l-174 0
-16 -75 c-10 -42 -17 -80 -17 -85 0 -6 27 -10 61 -10 53 0 60 -2 55 -17 -3
-10 -19 -78 -36 -152 -44 -197 -39 -271 21 -271 31 0 75 27 99 60 21 29 24 30
101 30 43 0 79 -2 79 -5 0 -10 -89 -397 -92 -400 -2 -2 -84 -9 -183 -15 -210
-12 -385 -1 -467 30 -28 11 -69 36 -90 57 -87 85 -93 205 -26 493 l44 185 -62
3 -61 3 14 67 c7 37 16 75 19 85 5 15 -3 17 -64 17 l-69 0 42 183 c23 101 45
189 49 195 4 7 32 12 71 12 l64 0 10 38 c6 20 22 89 36 152 14 63 28 121 30
128 3 9 69 12 280 12 259 0 276 -1 271 -17z m-2838 -274 c125 -24 250 -117
302 -223 36 -76 54 -190 44 -278 l-9 -78 62 0 c75 0 73 7 36 -136 l-27 -104
-384 0 -385 0 7 -41 c9 -55 31 -86 80 -111 106 -54 361 -33 444 37 27 22 39
25 116 25 62 0 86 -3 86 -12 0 -7 -18 -80 -40 -163 -45 -171 -42 -168 -165
-215 -136 -52 -230 -71 -372 -77 -416 -18 -664 148 -698 467 -7 70 12 210 39
287 l15 42 -65 3 -64 3 29 62 c171 361 580 582 949 512z m-6216 0 c78 -16 168
-64 223 -117 92 -91 132 -214 122 -373 l-6 -89 63 0 63 0 -7 -37 c-4 -21 -13
-58 -19 -83 -7 -25 -17 -62 -22 -82 l-10 -38 -379 0 -380 0 0 -41 c0 -34 6
-48 38 -79 48 -49 103 -65 217 -64 102 0 208 27 269 69 32 22 47 25 123 25 68
0 84 -3 80 -14 -3 -7 -23 -82 -44 -166 l-38 -153 -71 -33 c-160 -75 -359 -111
-543 -101 -201 12 -342 66 -447 171 -101 102 -142 221 -131 384 5 76 13 113
43 220 6 21 4 22 -56 22 -69 0 -70 1 -28 85 89 178 270 349 456 432 145 64
348 90 484 62z m1471 -4 c161 -42 276 -152 317 -303 12 -46 15 -227 4 -255 -5
-15 2 -17 60 -17 78 0 77 7 38 -135 l-27 -100 -384 -3 -384 -2 6 -42 c10 -78
64 -120 177 -140 109 -19 309 22 355 72 15 17 31 20 107 20 55 0 88 -4 88 -11
0 -5 -14 -63 -31 -127 -17 -64 -35 -134 -40 -155 -10 -36 -16 -42 -92 -77
-156 -73 -339 -106 -527 -97 -283 15 -476 129 -554 327 -38 97 -37 277 3 408
l19 62 -64 0 -64 0 26 58 c109 250 367 457 639 515 93 20 255 21 328 2z m5891
-47 c8 -13 31 -65 52 -115 21 -51 40 -93 43 -93 3 0 50 52 105 115 l98 115
304 0 c167 0 304 -4 304 -8 0 -4 -112 -127 -249 -273 l-249 -264 51 -3 50 -3
-46 -47 -45 -47 125 -265 c68 -146 137 -293 153 -328 l29 -62 -316 2 -315 3
-46 114 -45 114 -51 -54 c-28 -30 -76 -82 -106 -117 l-55 -63 -306 3 -307 3
299 318 c164 176 299 323 299 328 0 4 -10 29 -22 53 -21 45 -22 45 -77 48
l-55 3 -94 200 c-117 250 -152 332 -145 339 4 3 140 6 304 6 l299 0 14 -22z"/>
<path d="M5882 1710 c-46 -11 -104 -54 -141 -105 -17 -24 -31 -46 -31 -49 0
-3 27 -6 60 -6 33 0 60 -2 60 -3 0 -2 -9 -30 -21 -63 -44 -127 -34 -241 25
-279 28 -19 118 -17 137 2 6 6 26 77 45 159 19 82 37 157 40 167 5 15 -2 17
-60 17 -36 0 -66 2 -66 5 0 3 7 35 16 70 24 94 16 104 -64 85z"/>
<path d="M9151 1769 c-44 -13 -106 -55 -126 -85 l-15 -24 185 0 185 0 0 24 c0
69 -123 115 -229 85z"/>
<path d="M2940 1771 c-45 -14 -84 -39 -119 -75 l-35 -36 193 0 193 0 -6 28
c-17 69 -132 111 -226 83z"/>
<path d="M4391 1768 c-43 -12 -117 -62 -131 -88 -10 -20 -6 -20 175 -20 l185
0 0 23 c0 13 -13 35 -28 50 -46 44 -123 58 -201 35z"/>
</g>
</svg>
